<mxfile host="app.diagrams.net" modified="2022-02-01T02:18:14.512Z" agent="5.0 (X11; Linux x86_64) AppleWebKit/537.36 (KHTML, like Gecko) Chrome/97.0.4692.99 Safari/537.36" etag="b_6O9kdSXRp_2JUBj1I3" version="16.5.2" type="github">
  <diagram id="C5RBs43oDa-KdzZeNtuy" name="Page-1">
    <mxGraphModel dx="1350" dy="809" grid="1" gridSize="10" guides="1" tooltips="1" connect="1" arrows="1" fold="1" page="1" pageScale="1" pageWidth="827" pageHeight="1169" math="0" shadow="0">
      <root>
        <mxCell id="WIyWlLk6GJQsqaUBKTNV-0" />
        <mxCell id="WIyWlLk6GJQsqaUBKTNV-1" parent="WIyWlLk6GJQsqaUBKTNV-0" />
        <mxCell id="zkfFHV4jXpPFQw0GAbJ--0" value="Pessoa&#xa;" style="swimlane;fontStyle=2;align=center;verticalAlign=top;childLayout=stackLayout;horizontal=1;startSize=26;horizontalStack=0;resizeParent=1;resizeLast=0;collapsible=1;marginBottom=0;rounded=0;shadow=0;strokeWidth=1;" parent="WIyWlLk6GJQsqaUBKTNV-1" vertex="1">
          <mxGeometry x="140" y="40" width="160" height="160" as="geometry">
            <mxRectangle x="220" y="120" width="160" height="26" as="alternateBounds" />
          </mxGeometry>
        </mxCell>
        <mxCell id="zkfFHV4jXpPFQw0GAbJ--1" value="nome" style="text;align=left;verticalAlign=top;spacingLeft=4;spacingRight=4;overflow=hidden;rotatable=0;points=[[0,0.5],[1,0.5]];portConstraint=eastwest;" parent="zkfFHV4jXpPFQw0GAbJ--0" vertex="1">
          <mxGeometry y="26" width="160" height="26" as="geometry" />
        </mxCell>
        <mxCell id="zkfFHV4jXpPFQw0GAbJ--2" value="idade" style="text;align=left;verticalAlign=top;spacingLeft=4;spacingRight=4;overflow=hidden;rotatable=0;points=[[0,0.5],[1,0.5]];portConstraint=eastwest;rounded=0;shadow=0;html=0;" parent="zkfFHV4jXpPFQw0GAbJ--0" vertex="1">
          <mxGeometry y="52" width="160" height="26" as="geometry" />
        </mxCell>
        <mxCell id="CQT-FM-u1w6NH9FkKNzD-12" value="cpf&#xa;" style="text;align=left;verticalAlign=top;spacingLeft=4;spacingRight=4;overflow=hidden;rotatable=0;points=[[0,0.5],[1,0.5]];portConstraint=eastwest;rounded=0;shadow=0;html=0;" vertex="1" parent="zkfFHV4jXpPFQw0GAbJ--0">
          <mxGeometry y="78" width="160" height="26" as="geometry" />
        </mxCell>
        <mxCell id="CQT-FM-u1w6NH9FkKNzD-10" value="sexo" style="text;align=left;verticalAlign=top;spacingLeft=4;spacingRight=4;overflow=hidden;rotatable=0;points=[[0,0.5],[1,0.5]];portConstraint=eastwest;rounded=0;shadow=0;html=0;" vertex="1" parent="zkfFHV4jXpPFQw0GAbJ--0">
          <mxGeometry y="104" width="160" height="26" as="geometry" />
        </mxCell>
        <mxCell id="zkfFHV4jXpPFQw0GAbJ--4" value="" style="line;html=1;strokeWidth=1;align=left;verticalAlign=middle;spacingTop=-1;spacingLeft=3;spacingRight=3;rotatable=0;labelPosition=right;points=[];portConstraint=eastwest;" parent="zkfFHV4jXpPFQw0GAbJ--0" vertex="1">
          <mxGeometry y="130" width="160" height="2" as="geometry" />
        </mxCell>
        <mxCell id="CQT-FM-u1w6NH9FkKNzD-14" value="Ações&lt;br&gt;" style="text;html=1;align=center;verticalAlign=middle;resizable=0;points=[];autosize=1;strokeColor=none;fillColor=none;" vertex="1" parent="zkfFHV4jXpPFQw0GAbJ--0">
          <mxGeometry y="132" width="160" height="20" as="geometry" />
        </mxCell>
        <mxCell id="zkfFHV4jXpPFQw0GAbJ--17" value="Ações" style="swimlane;fontStyle=0;align=center;verticalAlign=top;childLayout=stackLayout;horizontal=1;startSize=26;horizontalStack=0;resizeParent=1;resizeLast=0;collapsible=1;marginBottom=0;rounded=0;shadow=0;strokeWidth=1;" parent="WIyWlLk6GJQsqaUBKTNV-1" vertex="1">
          <mxGeometry x="350" y="55" width="160" height="130" as="geometry">
            <mxRectangle x="550" y="140" width="160" height="26" as="alternateBounds" />
          </mxGeometry>
        </mxCell>
        <mxCell id="zkfFHV4jXpPFQw0GAbJ--18" value="Comer" style="text;align=left;verticalAlign=top;spacingLeft=4;spacingRight=4;overflow=hidden;rotatable=0;points=[[0,0.5],[1,0.5]];portConstraint=eastwest;" parent="zkfFHV4jXpPFQw0GAbJ--17" vertex="1">
          <mxGeometry y="26" width="160" height="26" as="geometry" />
        </mxCell>
        <mxCell id="zkfFHV4jXpPFQw0GAbJ--19" value="Falar" style="text;align=left;verticalAlign=top;spacingLeft=4;spacingRight=4;overflow=hidden;rotatable=0;points=[[0,0.5],[1,0.5]];portConstraint=eastwest;rounded=0;shadow=0;html=0;" parent="zkfFHV4jXpPFQw0GAbJ--17" vertex="1">
          <mxGeometry y="52" width="160" height="26" as="geometry" />
        </mxCell>
        <mxCell id="zkfFHV4jXpPFQw0GAbJ--20" value="Andar" style="text;align=left;verticalAlign=top;spacingLeft=4;spacingRight=4;overflow=hidden;rotatable=0;points=[[0,0.5],[1,0.5]];portConstraint=eastwest;rounded=0;shadow=0;html=0;" parent="zkfFHV4jXpPFQw0GAbJ--17" vertex="1">
          <mxGeometry y="78" width="160" height="26" as="geometry" />
        </mxCell>
        <mxCell id="zkfFHV4jXpPFQw0GAbJ--21" value="Dormir" style="text;align=left;verticalAlign=top;spacingLeft=4;spacingRight=4;overflow=hidden;rotatable=0;points=[[0,0.5],[1,0.5]];portConstraint=eastwest;rounded=0;shadow=0;html=0;" parent="zkfFHV4jXpPFQw0GAbJ--17" vertex="1">
          <mxGeometry y="104" width="160" height="26" as="geometry" />
        </mxCell>
        <mxCell id="CQT-FM-u1w6NH9FkKNzD-17" value="" style="curved=1;endArrow=classic;html=1;rounded=0;entryX=-0.025;entryY=0.085;entryDx=0;entryDy=0;entryPerimeter=0;exitX=0.994;exitY=0.6;exitDx=0;exitDy=0;exitPerimeter=0;" edge="1" parent="WIyWlLk6GJQsqaUBKTNV-1" source="CQT-FM-u1w6NH9FkKNzD-14" target="zkfFHV4jXpPFQw0GAbJ--17">
          <mxGeometry width="50" height="50" relative="1" as="geometry">
            <mxPoint x="300" y="210" as="sourcePoint" />
            <mxPoint x="440" y="330" as="targetPoint" />
            <Array as="points">
              <mxPoint x="310" y="140" />
              <mxPoint x="320" y="90" />
              <mxPoint x="320" y="60" />
            </Array>
          </mxGeometry>
        </mxCell>
        <mxCell id="CQT-FM-u1w6NH9FkKNzD-18" value="comer&lt;br&gt;" style="rounded=1;whiteSpace=wrap;html=1;shadow=0;" vertex="1" parent="WIyWlLk6GJQsqaUBKTNV-1">
          <mxGeometry x="100" y="240" width="120" height="60" as="geometry" />
        </mxCell>
        <mxCell id="CQT-FM-u1w6NH9FkKNzD-19" value="Pode" style="swimlane;fontStyle=0;childLayout=stackLayout;horizontal=1;startSize=30;horizontalStack=0;resizeParent=1;resizeParentMax=0;resizeLast=0;collapsible=1;marginBottom=0;shadow=0;" vertex="1" parent="WIyWlLk6GJQsqaUBKTNV-1">
          <mxGeometry y="340" width="140" height="60" as="geometry" />
        </mxCell>
        <mxCell id="CQT-FM-u1w6NH9FkKNzD-23" value="Não Pode" style="swimlane;fontStyle=0;childLayout=stackLayout;horizontal=1;startSize=30;horizontalStack=0;resizeParent=1;resizeParentMax=0;resizeLast=0;collapsible=1;marginBottom=0;shadow=0;" vertex="1" parent="WIyWlLk6GJQsqaUBKTNV-1">
          <mxGeometry x="170" y="340" width="140" height="120" as="geometry" />
        </mxCell>
        <mxCell id="CQT-FM-u1w6NH9FkKNzD-24" value="Falar" style="text;strokeColor=none;fillColor=none;align=left;verticalAlign=middle;spacingLeft=4;spacingRight=4;overflow=hidden;points=[[0,0.5],[1,0.5]];portConstraint=eastwest;rotatable=0;shadow=0;" vertex="1" parent="CQT-FM-u1w6NH9FkKNzD-23">
          <mxGeometry y="30" width="140" height="30" as="geometry" />
        </mxCell>
        <mxCell id="CQT-FM-u1w6NH9FkKNzD-25" value="Andar" style="text;strokeColor=none;fillColor=none;align=left;verticalAlign=middle;spacingLeft=4;spacingRight=4;overflow=hidden;points=[[0,0.5],[1,0.5]];portConstraint=eastwest;rotatable=0;shadow=0;" vertex="1" parent="CQT-FM-u1w6NH9FkKNzD-23">
          <mxGeometry y="60" width="140" height="30" as="geometry" />
        </mxCell>
        <mxCell id="CQT-FM-u1w6NH9FkKNzD-26" value="Dormir" style="text;strokeColor=none;fillColor=none;align=left;verticalAlign=middle;spacingLeft=4;spacingRight=4;overflow=hidden;points=[[0,0.5],[1,0.5]];portConstraint=eastwest;rotatable=0;shadow=0;" vertex="1" parent="CQT-FM-u1w6NH9FkKNzD-23">
          <mxGeometry y="90" width="140" height="30" as="geometry" />
        </mxCell>
        <mxCell id="CQT-FM-u1w6NH9FkKNzD-27" style="edgeStyle=orthogonalEdgeStyle;rounded=0;orthogonalLoop=1;jettySize=auto;html=1;exitX=1;exitY=0.5;exitDx=0;exitDy=0;" edge="1" parent="CQT-FM-u1w6NH9FkKNzD-23" source="CQT-FM-u1w6NH9FkKNzD-26" target="CQT-FM-u1w6NH9FkKNzD-26">
          <mxGeometry relative="1" as="geometry" />
        </mxCell>
        <mxCell id="CQT-FM-u1w6NH9FkKNzD-28" value="" style="endArrow=classic;startArrow=classic;html=1;rounded=0;" edge="1" parent="WIyWlLk6GJQsqaUBKTNV-1">
          <mxGeometry width="50" height="50" relative="1" as="geometry">
            <mxPoint x="60" y="340" as="sourcePoint" />
            <mxPoint x="110" y="290" as="targetPoint" />
          </mxGeometry>
        </mxCell>
        <mxCell id="CQT-FM-u1w6NH9FkKNzD-29" value="" style="endArrow=classic;startArrow=classic;html=1;rounded=0;" edge="1" parent="WIyWlLk6GJQsqaUBKTNV-1">
          <mxGeometry width="50" height="50" relative="1" as="geometry">
            <mxPoint x="210" y="290" as="sourcePoint" />
            <mxPoint x="270" y="350" as="targetPoint" />
          </mxGeometry>
        </mxCell>
        <mxCell id="CQT-FM-u1w6NH9FkKNzD-30" value="Falar" style="rounded=1;whiteSpace=wrap;html=1;shadow=0;" vertex="1" parent="WIyWlLk6GJQsqaUBKTNV-1">
          <mxGeometry x="550" y="240" width="120" height="60" as="geometry" />
        </mxCell>
        <mxCell id="CQT-FM-u1w6NH9FkKNzD-31" value="Pode" style="swimlane;fontStyle=0;childLayout=stackLayout;horizontal=1;startSize=30;horizontalStack=0;resizeParent=1;resizeParentMax=0;resizeLast=0;collapsible=1;marginBottom=0;shadow=0;" vertex="1" parent="WIyWlLk6GJQsqaUBKTNV-1">
          <mxGeometry x="440" y="340" width="140" height="60" as="geometry" />
        </mxCell>
        <mxCell id="CQT-FM-u1w6NH9FkKNzD-32" value="Andar" style="text;strokeColor=none;fillColor=none;align=left;verticalAlign=middle;spacingLeft=4;spacingRight=4;overflow=hidden;points=[[0,0.5],[1,0.5]];portConstraint=eastwest;rotatable=0;shadow=0;" vertex="1" parent="CQT-FM-u1w6NH9FkKNzD-31">
          <mxGeometry y="30" width="140" height="30" as="geometry" />
        </mxCell>
        <mxCell id="CQT-FM-u1w6NH9FkKNzD-35" value="Não Pode" style="swimlane;fontStyle=0;childLayout=stackLayout;horizontal=1;startSize=30;horizontalStack=0;resizeParent=1;resizeParentMax=0;resizeLast=0;collapsible=1;marginBottom=0;shadow=0;" vertex="1" parent="WIyWlLk6GJQsqaUBKTNV-1">
          <mxGeometry x="640" y="340" width="140" height="90" as="geometry" />
        </mxCell>
        <mxCell id="CQT-FM-u1w6NH9FkKNzD-40" value="" style="endArrow=classic;startArrow=classic;html=1;rounded=0;exitX=0.693;exitY=0.022;exitDx=0;exitDy=0;exitPerimeter=0;" edge="1" parent="CQT-FM-u1w6NH9FkKNzD-35" source="CQT-FM-u1w6NH9FkKNzD-35">
          <mxGeometry width="50" height="50" relative="1" as="geometry">
            <mxPoint x="80" y="20" as="sourcePoint" />
            <mxPoint x="20" y="-50" as="targetPoint" />
          </mxGeometry>
        </mxCell>
        <mxCell id="CQT-FM-u1w6NH9FkKNzD-36" value="Comer" style="text;strokeColor=none;fillColor=none;align=left;verticalAlign=middle;spacingLeft=4;spacingRight=4;overflow=hidden;points=[[0,0.5],[1,0.5]];portConstraint=eastwest;rotatable=0;shadow=0;" vertex="1" parent="CQT-FM-u1w6NH9FkKNzD-35">
          <mxGeometry y="30" width="140" height="30" as="geometry" />
        </mxCell>
        <mxCell id="CQT-FM-u1w6NH9FkKNzD-37" value="Dormir" style="text;strokeColor=none;fillColor=none;align=left;verticalAlign=middle;spacingLeft=4;spacingRight=4;overflow=hidden;points=[[0,0.5],[1,0.5]];portConstraint=eastwest;rotatable=0;shadow=0;" vertex="1" parent="CQT-FM-u1w6NH9FkKNzD-35">
          <mxGeometry y="60" width="140" height="30" as="geometry" />
        </mxCell>
        <mxCell id="CQT-FM-u1w6NH9FkKNzD-39" value="" style="endArrow=classic;startArrow=classic;html=1;rounded=0;" edge="1" parent="WIyWlLk6GJQsqaUBKTNV-1">
          <mxGeometry width="50" height="50" relative="1" as="geometry">
            <mxPoint x="510" y="340" as="sourcePoint" />
            <mxPoint x="560" y="290" as="targetPoint" />
          </mxGeometry>
        </mxCell>
        <mxCell id="CQT-FM-u1w6NH9FkKNzD-41" value="Andar" style="rounded=1;whiteSpace=wrap;html=1;shadow=0;" vertex="1" parent="WIyWlLk6GJQsqaUBKTNV-1">
          <mxGeometry x="100" y="525" width="120" height="60" as="geometry" />
        </mxCell>
        <mxCell id="CQT-FM-u1w6NH9FkKNzD-42" value="Pode" style="swimlane;fontStyle=0;childLayout=stackLayout;horizontal=1;startSize=30;horizontalStack=0;resizeParent=1;resizeParentMax=0;resizeLast=0;collapsible=1;marginBottom=0;shadow=0;" vertex="1" parent="WIyWlLk6GJQsqaUBKTNV-1">
          <mxGeometry y="620" width="140" height="60" as="geometry" />
        </mxCell>
        <mxCell id="CQT-FM-u1w6NH9FkKNzD-43" value="Falar" style="text;strokeColor=none;fillColor=none;align=left;verticalAlign=middle;spacingLeft=4;spacingRight=4;overflow=hidden;points=[[0,0.5],[1,0.5]];portConstraint=eastwest;rotatable=0;shadow=0;" vertex="1" parent="CQT-FM-u1w6NH9FkKNzD-42">
          <mxGeometry y="30" width="140" height="30" as="geometry" />
        </mxCell>
        <mxCell id="CQT-FM-u1w6NH9FkKNzD-46" value="Não Pode" style="swimlane;fontStyle=0;childLayout=stackLayout;horizontal=1;startSize=30;horizontalStack=0;resizeParent=1;resizeParentMax=0;resizeLast=0;collapsible=1;marginBottom=0;shadow=0;" vertex="1" parent="WIyWlLk6GJQsqaUBKTNV-1">
          <mxGeometry x="180" y="620" width="140" height="90" as="geometry" />
        </mxCell>
        <mxCell id="CQT-FM-u1w6NH9FkKNzD-47" value="Comer" style="text;strokeColor=none;fillColor=none;align=left;verticalAlign=middle;spacingLeft=4;spacingRight=4;overflow=hidden;points=[[0,0.5],[1,0.5]];portConstraint=eastwest;rotatable=0;shadow=0;" vertex="1" parent="CQT-FM-u1w6NH9FkKNzD-46">
          <mxGeometry y="30" width="140" height="30" as="geometry" />
        </mxCell>
        <mxCell id="CQT-FM-u1w6NH9FkKNzD-48" value="Dormir" style="text;strokeColor=none;fillColor=none;align=left;verticalAlign=middle;spacingLeft=4;spacingRight=4;overflow=hidden;points=[[0,0.5],[1,0.5]];portConstraint=eastwest;rotatable=0;shadow=0;" vertex="1" parent="CQT-FM-u1w6NH9FkKNzD-46">
          <mxGeometry y="60" width="140" height="30" as="geometry" />
        </mxCell>
        <mxCell id="CQT-FM-u1w6NH9FkKNzD-50" value="" style="endArrow=classic;startArrow=classic;html=1;rounded=0;" edge="1" parent="WIyWlLk6GJQsqaUBKTNV-1">
          <mxGeometry width="50" height="50" relative="1" as="geometry">
            <mxPoint x="60" y="620" as="sourcePoint" />
            <mxPoint x="110" y="570" as="targetPoint" />
          </mxGeometry>
        </mxCell>
        <mxCell id="CQT-FM-u1w6NH9FkKNzD-51" value="" style="endArrow=classic;startArrow=classic;html=1;rounded=0;entryX=0.75;entryY=0;entryDx=0;entryDy=0;" edge="1" parent="WIyWlLk6GJQsqaUBKTNV-1" target="CQT-FM-u1w6NH9FkKNzD-46">
          <mxGeometry width="50" height="50" relative="1" as="geometry">
            <mxPoint x="200" y="585" as="sourcePoint" />
            <mxPoint x="250" y="535" as="targetPoint" />
          </mxGeometry>
        </mxCell>
        <mxCell id="CQT-FM-u1w6NH9FkKNzD-52" value="Dormir" style="rounded=1;whiteSpace=wrap;html=1;shadow=0;" vertex="1" parent="WIyWlLk6GJQsqaUBKTNV-1">
          <mxGeometry x="550" y="570" width="120" height="60" as="geometry" />
        </mxCell>
        <mxCell id="CQT-FM-u1w6NH9FkKNzD-53" value="Não Pode" style="swimlane;fontStyle=0;childLayout=stackLayout;horizontal=1;startSize=30;horizontalStack=0;resizeParent=1;resizeParentMax=0;resizeLast=0;collapsible=1;marginBottom=0;shadow=0;" vertex="1" parent="WIyWlLk6GJQsqaUBKTNV-1">
          <mxGeometry x="540" y="650" width="140" height="120" as="geometry" />
        </mxCell>
        <mxCell id="CQT-FM-u1w6NH9FkKNzD-54" value="comer" style="text;strokeColor=none;fillColor=none;align=left;verticalAlign=middle;spacingLeft=4;spacingRight=4;overflow=hidden;points=[[0,0.5],[1,0.5]];portConstraint=eastwest;rotatable=0;shadow=0;" vertex="1" parent="CQT-FM-u1w6NH9FkKNzD-53">
          <mxGeometry y="30" width="140" height="30" as="geometry" />
        </mxCell>
        <mxCell id="CQT-FM-u1w6NH9FkKNzD-55" value="falar" style="text;strokeColor=none;fillColor=none;align=left;verticalAlign=middle;spacingLeft=4;spacingRight=4;overflow=hidden;points=[[0,0.5],[1,0.5]];portConstraint=eastwest;rotatable=0;shadow=0;" vertex="1" parent="CQT-FM-u1w6NH9FkKNzD-53">
          <mxGeometry y="60" width="140" height="30" as="geometry" />
        </mxCell>
        <mxCell id="CQT-FM-u1w6NH9FkKNzD-56" value="andar" style="text;strokeColor=none;fillColor=none;align=left;verticalAlign=middle;spacingLeft=4;spacingRight=4;overflow=hidden;points=[[0,0.5],[1,0.5]];portConstraint=eastwest;rotatable=0;shadow=0;" vertex="1" parent="CQT-FM-u1w6NH9FkKNzD-53">
          <mxGeometry y="90" width="140" height="30" as="geometry" />
        </mxCell>
        <mxCell id="CQT-FM-u1w6NH9FkKNzD-57" value="" style="endArrow=classic;startArrow=classic;html=1;rounded=0;" edge="1" parent="WIyWlLk6GJQsqaUBKTNV-1" target="CQT-FM-u1w6NH9FkKNzD-52">
          <mxGeometry width="50" height="50" relative="1" as="geometry">
            <mxPoint x="600" y="650" as="sourcePoint" />
            <mxPoint x="650" y="600" as="targetPoint" />
          </mxGeometry>
        </mxCell>
      </root>
    </mxGraphModel>
  </diagram>
</mxfile>
